<svg width="16" height="16" viewBox="0 0 16 16" fill="none" xmlns="http://www.w3.org/2000/svg">
<g clip-path="url(#clip0_2373_48)">
<path d="M2 12.9998L5.26875 5.64671C5.74688 4.57171 6.52813 3.66233 7.51875 3.03108L12.1094 0.0935826C12.2031 0.0342076 12.3125 0.00295763 12.4219 0.00295763C12.7406 -0.000167368 13 0.259208 13 0.581083V0.631083C13 0.712333 12.9844 0.790458 12.9563 0.865458L11.0875 5.52796C11.0281 5.67483 11 5.83108 11 5.98733C11 6.15921 11.0375 6.33108 11.1062 6.49046L14 12.9998H7.52812L7.89687 11.8936L9.15938 11.4717C9.3625 11.403 9.5 11.2123 9.5 10.9967C9.5 10.7811 9.3625 10.5905 9.15938 10.5217L7.89687 10.0998L7.475 8.83733C7.40625 8.63733 7.21563 8.49983 7 8.49983C6.78437 8.49983 6.59375 8.63733 6.525 8.84046L6.10313 10.103L4.84062 10.5248C4.6375 10.5936 4.5 10.7842 4.5 10.9998C4.5 11.2155 4.6375 11.4061 4.84062 11.4748L6.10313 11.8967L6.47188 12.9998H2ZM8.7375 4.42171C8.70313 4.31858 8.60938 4.24983 8.5 4.24983C8.39062 4.24983 8.29687 4.31858 8.2625 4.42171L8.05313 5.05296L7.42188 5.26233C7.31875 5.29671 7.25 5.39046 7.25 5.49983C7.25 5.60921 7.31875 5.70296 7.42188 5.73733L8.05313 5.94671L8.2625 6.57796C8.29687 6.68108 8.39062 6.74983 8.5 6.74983C8.60938 6.74983 8.70313 6.68108 8.7375 6.57796L8.94687 5.94671L9.57812 5.73733C9.68125 5.70296 9.75 5.60921 9.75 5.49983C9.75 5.39046 9.68125 5.29671 9.57812 5.26233L8.94687 5.05296L8.7375 4.42171ZM1 13.9998H15C15.5531 13.9998 16 14.4467 16 14.9998C16 15.553 15.5531 15.9998 15 15.9998H1C0.446875 15.9998 0 15.553 0 14.9998C0 14.4467 0.446875 13.9998 1 13.9998Z" fill="#1ABCFE"/>
</g>
<defs>
<clipPath id="clip0_2373_48">
<rect width="16" height="16" fill="white"/>
</clipPath>
</defs>
</svg>
